<?xml version="1.0" encoding="UTF-8"?><svg id="Layer_1" xmlns="http://www.w3.org/2000/svg" xmlns:xlink="http://www.w3.org/1999/xlink" viewBox="0 0 508.05 339.77"><defs><style>.cls-1{clip-path:url(#clippath);}.cls-2{fill:#ebf5f7;}.cls-3{fill:#fff;}.cls-4{fill:#cddfe4;}.cls-5{fill:#152c47;}.cls-6{fill:#1a365e;}.cls-7{fill:#486d98;}</style><clipPath id="clippath"><circle class="cls-2" cx="301.33" cy="152" r="152"/></clipPath></defs><circle class="cls-2" cx="301.33" cy="152" r="152"/><g class="cls-1"><g><path class="cls-7" d="M229.97,173.63c-.48-1.45-13.76,10.32-19.73,10.32s-9.18,2.06-9.18,2.06c0,0-6.42,20.12-4.13,36.11,2.29,15.99-210.89,114.04-196.21,117.66l507.29-44.19c2.14,6.65-113.58-30.87-135.81-91-14.81-40.05-.67-79.89,2.29-80.98,0,0-6.88,2.06-15.14-3.61l-8.26-5.67s-9.64-3.61-14.22,2.58c-4.59,6.19-5.96,15.99-5.96,15.99,0,0-7.8-5.16-8.26-13.93-.46-8.77,1.38-11.35,1.38-11.35,0,0-12.85,6.19-18.81,5.67-5.96-.52-10.55-4.64-16.98-2.06-6.42,2.58-8.26,16.51-8.26,16.51,0,0,6.42,1.55,10.55-5.16,0,0,5.96,6.19,0,11.86,0,0,2.75,4.13,2.29,9.8,0,0,5.96-7.22,18.35-5.16,12.39,2.06,8.26,5.67,8.26,5.67,0,0,9.64,3.09,11.93,6.71,0,0,8.26-1.55,7.8-6.19,0,0,2.29,8.77-4.13,12.9,0,0,10.55,6.71,7.34,14.44-3.21,7.74-9.64,9.8-9.64,12.89s3.98,3.27,3.98,3.27c0,0-7.65,4.99-8.56-2.75,0,0-7.34,10.83-17.89,8.77-10.55-2.06-10.55-6.71-10.55-6.71,0,0-10.09,1.55-10.55-9.28l-2.75,1.55s1.84,4.64-.92,6.71c-2.75,2.06-12.39,6.71-17.89,2.06-5.51-4.64-6.88-11.35-6.88-11.35,0,0-9.18,4.64-16.52,4.13-7.34-.52-12.85-4.13-14.22-8.25Z"/><path class="cls-2" d="M240.22,129.33s-28.44,5.38-42.26,23.31c-13.82,17.93-19.14,27.79-28.97,51.4-9.84,23.61-28.44,51.4-52.9,57.97h105.53s-21-14.64-25.25-42.43c0,0,1.59-28.39,5.85-33.77,0,0,21-1.49,27.91-12.85,0,0,5.58,8.07,12.76,8.37,7.18,.3,17.84-3.56,17.84-3.56,0,0-.56,9.24,8.48,11.63,9.04,2.39,17.81,2.09,18.34-8.67l2.13-.3s1.59,7.17,5.32,7.77c3.72,.6,4.74-.12,4.74-.12,0,0-1.81,3.4,8.02,5.79,9.83,2.39,16.75-1.2,20.2-8.67,0,0-.27,6.87,8.24,4.48,0,0-5.05-2.99-2.13-7.77,2.92-4.78,7.44-4.48,7.44-11.95s-4.25-10.16-9.57-10.16c0,0,7.44-.6,6.91-11.06,0,0-3.46,3.29-7.44,1.2-3.99-2.09-5.32-4.48-9.3-4.48s-5.32-5.68-12.49-5.98c-7.18-.3-10.1-1.49-15.15,1.49,0,0-3.83-4.13-3.38-5.95,.45-1.82,1.51-6,.19-10.78,0,0-7.44,5.08-12.76,3.29,0,0,2.39-15.84,12.23-18.23,0,0,8.53,3.48,15.03,3.68,6.5,.2,15.81-5.17,15.81-5.17l2.47-.2s-4.34,10.66-.61,17.53c3.72,6.87,6.65,7.47,6.65,7.47,0,0-.72-11.12,6.82-15.72,7.54-4.6,14.22-2.58,14.22-2.58,0,0,5.54,8.14,11.66,8.73,6.11,.6,14.35,0,14.35,0,0,0,.53,8.07,4.52,13.15,3.99,5.08,4.78,5.38,4.78,5.38,0,0-3.72-11.65,1.06-20.32,4.78-8.67,11.96-15.54,8.24-23.61,0,0,6.91-3.59,11.7,1.79,4.78,5.38,2.66,13.15,2.66,13.15,0,0,6.65-5.08,4.52-15.84-2.13-10.76-.27-11.65-7.71-16.14,0,0,2.92-13.15-6.65-20.32,0,0,1.33-13.15-2.92-18.23-4.25-5.08-9.84-9.56-17.81-8.67s-10.63,1.2-10.63,1.2c0,0-9.3-5.98-18.34-3.59-9.04,2.39-10.9,6.28-11.96,8.67,0,0-15.42-2.69-25.78,3.59-10.37,6.28-14.62,16.43-16.48,17.63-1.86,1.2-19.94,9.86-29.24,21.51-9.3,11.65-19.94,29.88-22.33,35.26-2.39,5.38-4.52,11.65-4.52,11.65Z"/><path class="cls-3" d="M237.7,141.9c-3.54-2.07-7.31-3.26-11.31-3.41-3.16-.12-8.15,.05-10.62,2.59-2.65,2.72,.55,11.13,4.35,9.83,6.17-2.11,10.64-3.96,16.27-1.31,3.12,1.47,3.8-6.25,1.32-7.7Z"/><path class="cls-3" d="M286.27,129.07c-13.84,4.91-31.41-5.27-43.76,6.21-1.51,1.4-2.06,8.24,1.07,7.09,3.12-1.14,5.96-2.99,9.12-4.05,4.67-1.56,9.51-1.7,14.35-1.57,7.13,.2,13.05,.04,19.24-4.28,1.02-.71,2.2-4.18-.01-3.4Z"/><path class="cls-3" d="M294.57,64.27c-11.43,2.67-21.72,13.71-28.93,23.48-4.45,6.02-8.37,12.52-12.07,19.14-3.04,5.45-7.13,11.57-8.05,18-.21,1.43,1.7,.31,1.99-.27,5.55-11.02,12.48-21.69,20.52-30.58,4.21-4.66,8.76-8.99,13.72-12.61,4.75-3.47,10.03-5.41,14.9-8.5,2.49-1.58,1.12-9.41-2.08-8.66Z"/><path class="cls-3" d="M332.32,63.14c-4.32-6.89-16.39-5.11-21.62-.5-1.55,1.36-1.81,7.7,1.01,7.49,3.81-.29,7.25-2.05,11.02-2.64,3.17-.5,6.06,.21,8.79-1.93,.63-.5,1.33-1.56,.8-2.41Z"/><path class="cls-3" d="M331.6,46.61c-5.34-12.78-23.21,.25-30.39,5.04-3.6,2.4,1.47,9.15,4.78,6.71,4.52-3.33,9.34-7.03,14.75-8.18,3.7-.78,7.32,.83,10.21-1.99,.31-.3,.87-1.05,.65-1.58Z"/><path class="cls-3" d="M396.57,58.57c3.28-4.55,4.24-11.11,.51-16.19-4.13-5.63-12.87-7.17-19.08-7.71-3.94-.34-10.17-1.02-12.74,2.99-1.51,2.35-.4,8.5,2.82,8.13,2.84-.32,5.51-1.31,8.38-1.33,2.23-.02,4.47,.32,6.69,.74,.33,.51,.61,1.04,.83,1.61-2.04,.38-4.01,1.16-5.69,2.32-3.59,2.48-5.51,7.31-1.96,10.98,3.28,3.39,8.38,4.52,12.69,3.64,.09-.02,.18-.05,.28-.07,.01,.01,.03,.02,.04,.03,0-.01-.02-.02-.02-.04,2.65-.62,5.02-2.29,6.81-4.54l.33-.13c.04-.15,.07-.3,.11-.45Z"/><path class="cls-3" d="M363.24,37.8c-4.26-8.25-14.5-8.11-20.12-1.86-1.17,1.3-1.31,7.71,1.38,6.47,5.9-2.72,10.7-5.64,17.19-3.09,.61,.24,1.98-.69,1.55-1.52Z"/><path class="cls-3" d="M374.96,69.44c-6.98-3.55-18.45,.16-14.24,9.23-1.82-.12-3.58-.31-5.09-.32-3.42-.03-1.72,8.1,.74,8.93,8.85,3,20.62,2.03,22.57-10.33,.32-2.02-1.42-8.38-3.98-7.51Z"/><path class="cls-3" d="M409.43,94.62c-1.47-4.48-4.05-7.77-8.53-8.08-2.39-.17-4.61,.3-6.75,.87,.91-1.67,1.93-3.24,3.45-4.37,.95-.71,2.2-4.22,.07-3.95-2.56,.32-4.74,1.51-6.9,3.07-4.88,3.54-7.96,4.73-13.9,3.37-4.71-1.08-2.35,7.33-.23,8.94,3.67,2.79,7.49,4.75,11.99,4.94,4.71,.19,15.33-5.77,17.31,.08,1.4,4.13,4.38-2.14,3.49-4.86Z"/><path class="cls-3" d="M372.69,109.62c-3.85,1.57-9.04,1.44-11.99-2.15-2.87-3.48-3.03-8.58-4.1-12.94-.53-2.18-3.46-4.41-4.42-1.23-3.53,11.74,10.91,36.1,21.41,22.52,.86-1.11,1.87-7.33-.9-6.21Z"/><path class="cls-3" d="M343.25,104.28c-5.66,1.2-11.06,4.63-14.03,10.32-.66,1.27-1.21,3.37-.31,4.7,.89,1.31,2.06,.59,2.79-.49,2.86-4.26,6.3-7.44,10.92-8.92,1.7-.54,2.87-6.08,.63-5.61Z"/><path class="cls-3" d="M325.27,93.85c-1.45,4.12-15.5-2.84-18.07-3.88-3.45-1.41-2.7,7.34-.44,8.72,3.97,2.43,10.2,5.67,14.85,4.28,3.42-1.02,6.11-5.78,6.02-9.71-.04-1.72-2.08-.25-2.37,.59Z"/><path class="cls-3" d="M298.83,92.66c-.58,.19-1.25-.01-1.87,.18-.97,.29-2.02,.56-2.9,1.08-1.35,.8-2.31,1.98-3.27,3.29-.82,1.11-1.16,3.34-.41,4.59,.82,1.36,2.02,.57,2.74-.41,.9-1.22,1.78-2.42,2.63-3.69,.63-.94,1.34-1.78,2.07-2.63,.42-.5,.82-1.17,1.32-1.57,.45-.36,.34-1.06-.3-.84Z"/><path class="cls-3" d="M291.82,97.82c-9.3,1.91-21.49,9.47-23.71,20.67-.45,2.28,2.24,9.1,4.6,5.39,2.22-3.49,3.2-7.7,5.63-11.12,3.38-4.74,7.92-7.95,12.99-9.84,1.72-.64,3.19-5.65,.49-5.1Z"/><path class="cls-3" d="M318.59,81.37c-1.02,0-2.01-.09-3.03-.21-1.29-.15-2.6,.02-3.9,.1-2.2,.14-2.97,5.58-.41,4.36,2.52-1.19,4.94-2.56,7.42-3.85,.26-.13,.19-.4-.08-.4Z"/><path class="cls-3" d="M349.55,73.54c-1.9,.47-3.58,1.16-5.35,2.06-.88,.44-.48,1.42,.41,1.01,1.79-.82,3.46-1.69,5.05-2.94,.09-.07-.04-.14-.1-.13Z"/><path class="cls-3" d="M177,209.38c-5.35,9.83-10.13,20.01-16.78,28.86-7.64,10.18-18.06,15.58-28.87,20.3-1.1,.48-2.51,3.25-1.18,4.23,4.19,3.09,8.82-2.25,12.43-4.74,5.65-3.9,11.08-7.93,15.91-13.07,9-9.6,14.69-22.52,18.71-35.55,.04-.12-.19-.1-.23-.03Z"/><path class="cls-3" d="M183.76,219.67c-4.65,7.71-9.7,15.03-15.86,21.31-6.18,6.29-14.48,14.08-22.67,16.24-1.66,.44-2.97,5.68-.84,5.31,4.35-.75,8.23-1.56,11.84-4.48,4.18-3.38,7.91-7.61,11.48-11.76,6.72-7.8,13.2-16.31,16.72-26.55,.15-.43-.52-.31-.66-.08Z"/><path class="cls-3" d="M157.84,230.15c-5.57,7.19-12.22,12.87-18.89,18.66-2.16,1.88-4.17,3.82-6.26,5.79-3.58,3.39-7.87,3.01-11.78,5.55-.68,.44-2.24,2.67-.81,3.2,4.15,1.52,8.12-1.92,12.21-3.35,3.84-1.35,6.51-3.19,9.65-5.99,7.04-6.27,12.67-14.8,17.89-22.93,1.31-2.03-.93-2.31-2-.93Z"/><path class="cls-3" d="M208.97,153.22c-20.58,6.46-31.32,27.67-37.9,49.03-1.02,3.31,1.71,4.82,3,1.47,7.67-19.91,17.65-39.41,34.96-50.43,.06-.04-.01-.09-.06-.07Z"/><path class="cls-3" d="M281,139.21c-1.71-.6-3.52-.91-5.31-.74-2.78,.27-3.7,1.43-4.51,4.47-.59,2.22,.57,6.41,3.06,6.29,2.22-.1,4.47-.95,6.68-.79,1.97,.14,3.57,.79,5.36-.47,.43-.3,1.08-1.07,1-1.73-.47-3.6-3.3-5.99-6.29-7.04Z"/><g><path class="cls-3" d="M257.86,161.57c-.07,.05-.15,.06-.23,.1-.51,.31-.68,.48,.23-.1Z"/><path class="cls-3" d="M268.89,156.17c-3.87-6.01-10.56-7.15-16.43-4.36-4.74,2.25,.93,12.09,5.17,9.87,.16-.09,.34-.2,.54-.3,1.07-.54,2.19-.95,3.29-1.43,2-.86,3.82-1.93,6.02-1.97,.59-.01,1.93-.99,1.41-1.8Z"/></g><path class="cls-3" d="M288.85,167.35c-2.02-2.65-8.92-7.9-9.43-1.11-.12,1.61,.28,3.71,1.5,4.73,.06,.05,.14,.08,.21,.12-.57-.18-.51-.15,.16,.1,.13,.07,.26,.12,.4,.16,.19,.07,.38,.13,.59,.16,1.36,.29,2.76,.24,4.09,.72,1.97,.72,3.7-3.28,2.49-4.88Z"/><path class="cls-3" d="M279.8,183.39c-.4-.12-1.01-1.37-1.39-1.67-1.05-.81-2.44-1.33-3.61-1.84-1-.43-2.01-.8-2.96-1.35-.36-.3-.64-.53-.86-.69,.03-1.16-.25-2.31-.87-3.42-.29-1.43-2.7-5.56-4.46-3.4-.97,1.19-1.48,1.39-1.85,3.24-.29,1.5,.01,2.98,.44,4.41,.73,2.4,1.94,4.5,3.59,6.23,1.61,1.69,3.69,3.26,5.98,3.19,2.73-.08,4.26-2.58,6.03-4.57,.05-.06,.02-.11-.04-.13Z"/><path class="cls-3" d="M326.91,184.65c-1.91-.58-4.05,.1-6.03-.08-2.31-.21-4.58-1.13-6.89-1.11-1.47,.01-1.85,2.83-1.8,3.95,.06,1.58,.73,4.18,2.18,4.85,4.87,2.25,9.72-1.25,12.55-5.77,.25-.41,.73-1.62-.02-1.84Z"/><path class="cls-3" d="M336.14,169.01c-1-6.01-7.6-10.18-12.55-10.58-.9-.07-1.49,.82-1.86,1.58-.09,.18-.17,.36-.26,.54-.98,2.02-.36,6.47,1.93,7.16,1.79,.54,3.82,.69,5.5,1.62,1.94,1.08,3.01,2.86,4.32,4.7,.76,1.07,2.1-.31,2.5-1,.81-1.37,.67-2.53,.42-4.02Z"/><path class="cls-3" d="M325.64,150.05c-1.21-1.7-2.85-2.85-4.58-3.76-2.71-1.43-6.7-2.72-9.26-.46-1.54,1.36-1.43,7.22,.94,7.65,4.6,.82,9.65-.89,14.2,.55,.07,.02,.34,0,.29-.15-.49-1.56-.62-2.46-1.59-3.82Z"/><path class="cls-3" d="M304.82,142.84c-1.52-.58-2.61-.09-3.83,1-.74,.66-2.25,3.62-.47,3.96,.76,.14,1.38,.23,2.13-.03,.68-.23,1.34-.63,2-.93,.82-.36,1.73-.57,2.52-.97,.1-.05,.31-.13,.35-.25,.46-1.29-2.01-2.52-2.71-2.78Z"/><g><path class="cls-3" d="M298.27,153.62c-4.14-.18-1.91,9.48,1.75,9.77,.57,.02,1.34,.04,1.54,.04,.92,0,1.84-.02,2.76-.04,2.08-.06,4.08-.81,6.14-1.21,.12-.02,.27-.13,.25-.29-.62-5.79-8.14-8.08-12.44-8.27Z"/><path class="cls-3" d="M300.09,163.4s-.05-.01-.07-.02c-.68-.02-1.08-.03,.07,.02Z"/></g><path class="cls-3" d="M272.29,97.81c-6.06,5.35-13.16,12.71-15.76,21.15-.57,1.86,1.73,.88,2.24,.21,2.41-3.17,3.97-7.28,6.11-10.7,2.34-3.74,4.96-7.18,7.82-10.42,.24-.27-.26-.38-.42-.23Z"/><path class="cls-3" d="M205.47,147.22c-9.08,9.62-17.3,20-23.92,31.95-6.23,11.25-12.83,22.88-14.35,36.14-.31,2.71,1.87,3.74,3.31,1.66,3.22-4.65,4.16-10.09,5.86-15.6,2.08-6.75,4.76-13.13,7.82-19.37,6.05-12.32,13.18-24.15,21.47-34.71,.08-.1-.15-.13-.2-.07Z"/><path class="cls-3" d="M246.94,170c-2.3-1.1-4.68-2.26-6.89-3.58-1.39-.83-2.57-1.86-3.75-3-.86-.83-1.87-1.64-2.99-.79-.42,.32-.71,.95-.89,1.47-.07,.34-.14,.69-.21,1.03,1.05,2.44,2.09,4.88,3.14,7.33,1.05,1.04,2.48,2.03,3.85,2.46,2.79,.86,4.9-.63,7.21-2.21,.63-.43,1.61-2.18,.53-2.7Z"/><path class="cls-3" d="M228.19,161.06c-.36-.62-.81-1.27-1.41-1.61-1.16-.64-1.97,0-2.88,.84-.6,.55-1.05,1.43-1.17,2.29-.08,.53-.06,1.59,.52,1.83,.29,.12,.6,.27,.9,.36,.4,.12,.76,.05,1.16-.03,.31-.06,.59-.21,.9-.22,.7-.03,1.34-.76,1.69-1.36,.31-.54,.65-1.48,.3-2.09Z"/><path class="cls-3" d="M217.17,174.49c-6.3,3.37-13.24,1.91-19.5,5.14-4.74,2.45-7.78,6.88-9.88,12.1-.71,1.76,.55,3.22,1.92,1.66,3.77-4.27,9.39-5.53,14.02-8.16,4.7-2.67,9.67-6.64,13.6-10.63,.11-.11-.1-.14-.16-.11Z"/><path class="cls-3" d="M355.71,53.1c-4.49-.7-8.78,.04-11.89,4.02-.73,.94-.88,3.26,.76,2.67,1.84-.66,3.19-2.03,4.83-3.13,1.96-1.32,4.13-2.46,6.3-3.24,.16-.06,.2-.29,0-.32Z"/><path class="cls-3" d="M340.38,45.06c-5.24,2.37-8.8,7.79-14.04,10.01-2.13,.9-2.48,7.07,.08,5.75,6.33-3.26,9.16-10.46,14.36-15.23,.38-.34-.05-.69-.4-.53Z"/><path class="cls-4" d="M298.79,72.4c-19.1,5.27-34.71,23.45-43.56,42.52-.08,.18,.24,.15,.31,.03,11.24-18.72,26.72-28.58,44.12-38.6,1.15-.66,.57-4.36-.86-3.96Z"/><path class="cls-4" d="M329.22,48.29c-4.5,.74-8.81,2.1-12.98,3.99-1.28,.49-2.55,1.11-3.82,1.88-1.11,.68-.79,2.19,.03,3.34-.46,.26-.92,.52-1.36,.82-3.57,2.44-6.67,5.75-9.55,9.13-.17,.2,.19,.2,.28,.14,4.69-3.14,9.98-5.32,15.18-7.17,3.95-1.41,8.04-2.1,11.43-4.92,.63-.53,.62-1.25,.29-1.96,.71-.2,1.42-.39,2.14-.57,2.12-.54,.17-4.98-1.64-4.68Z"/><path class="cls-4" d="M412.43,92.8c-1.16-2.54-3.02-4.79-5.24-6.22-2.13-1.37-3.77-1.19-6.03-.4-.2,.07-.88,.65-.46,.89,1.81,.98,3.7,1.93,5.45,3.05,2.18,1.4,3.28,3.32,4.69,5.56,.33,.52,1.08,.64,1.43,.08l.2-.32c.48-.77,.32-1.85-.05-2.64Z"/><path class="cls-4" d="M408.39,82.75c-1.99-2.37-4.73-5.05-7.78-5.13-.2,0-.76,.28-.57,.6,.94,1.67,2.5,2.87,3.81,4.16,1.15,1.13,2.24,2.33,3.33,3.54,1.58,1.77,2.23-1.97,1.22-3.17Z"/><path class="cls-4" d="M397.93,61.37c-.32,0-.95,.55-.58,.91,1.96,1.9,4.22,4.04,5.24,6.79,1.02,2.74,.82,5.77,1.55,8.58,.39,1.52,3.27,4.43,3.44,1.26,.34-6.18-3.22-17.34-9.66-17.53Z"/><path class="cls-4" d="M314.43,105.98c-5.37,1.01-10.11,.69-15.49,.09-3.74-.42-7.52-.68-11.14,.68-6.76,2.55-13.4,10.93-13.16,19.27,0,.13,.23,.05,.26-.02,3.86-8.48,10.24-14.73,18.99-15.45,6.84-.57,15.94,3.93,22.14-.43,1.36-.95-.13-4.41-1.6-4.14Z"/><path class="cls-4" d="M228.87,168.31c-1.78,1.05-3.55,2.17-5.29,3.31-1.85,1.21-4.24,3.12-6.43,3.15-1.99,.03-.37,4.47,1.11,4.64,3.35,.39,5.47-1.89,7.43-4.74,1.16-1.69,2.99-4.18,3.37-6.31,.02-.1-.13-.08-.18-.05Z"/><path class="cls-4" d="M258.95,171.28c-1.01,.05-2.01-.06-3.02-.02-1.62,.07-2.88,.03-4.38-.69-.97-.47-1.73,.26-1.72,1.38,0,.36,1.41,3.69,1.95,3.07-.09,.1,2.59,.95,2.95,1,.69,.09,1.4,.13,2.04-.2,1.17-.59,1.71-2.09,2.42-3.2,.26-.41,.47-1.38-.24-1.34Z"/><path class="cls-4" d="M260.78,167.71c-3.18,.38-5.51,.01-8.29-1.84-2.36-1.57-5.57-3.7-6.96-6.53-.63-1.29-1.79,.81-1.53,1.71,1.22,4.11,4.88,6.87,8.06,9.03,2.51,1.7,7.96,4.38,10.54,1.88,1.14-1.1-.43-4.42-1.82-4.25Z"/><path class="cls-4" d="M258.17,173.39c-2.78,.9-5.22,2.13-8.22,1.74-.13-.02-.49,.09-.4,.31,.67,1.88,2.01,2.92,3.78,3.26,2.43,.47,4.57-.09,5.74-2.63,.34-.74,.31-3.07-.9-2.68Z"/><path class="cls-4" d="M198.33,189.19c-1.75-2.03-5.18-.18-6.86,1.21-.74,.62-1.47,1.38-2.06,2.18-1.19,1.63-.66,2.59,.23,4.26,.35,.65,.96,1.34,1.7,1.12,1.35-.42,1.56-.72,2.35-1.89,.42-.62,.91-1.13,1.38-1.69,1.18-1.43,2.09-2.98,3.13-4.52,.1-.15,.29-.48,.13-.67Z"/><g><path class="cls-4" d="M196.69,185.35c-4.23,2.2-7.66,6.6-9.38,11.44-.95,2.67,4.49,5.26,5.52,2.63,.11-.29,.23-.61,.25-.65,.21-.49,.4-.99,.62-1.48,.6-1.28,1.32-2.48,2.17-3.58,1.21-1.57,2.66-2.67,4.02-4.04,1.59-1.61-1.63-5.35-3.2-4.31Z"/><path class="cls-4" d="M192.85,199.4s0,0,0,.01c-.17,.45-.32,.83,0-.01Z"/></g><path class="cls-4" d="M199.58,238.67c-2.47-15.62-8.64-29.5-6.42-45.94,.16-1.21-1.28-.25-1.44,.42-3.9,16.29-.11,31.73,5.86,46.77,.75,1.89,2.22,.22,1.99-1.25Z"/><path class="cls-4" d="M196.45,203.95c.11-5.21,1.22-10.55,1.07-15.7,0-.21-.31-.11-.37,0-4.36,8.23-5.82,19.37-3.45,28.53,.26,1.02,1.67,2.01,2.08,.52,1.18-4.23,.57-8.95,.66-13.36Z"/><path class="cls-4" d="M198.24,228.1c-1.55-6.64-2.79-13.46-3.05-20.34-.2-5.33-1.11-14.21,1.54-18.83,.08-.15-.16-.14-.22-.12-3.29,1.38-3.2,8.98-3.5,12.2-.92,9.76,.22,19.21,3.18,28.4,.81,2.52,2.53,.71,2.06-1.32Z"/><path class="cls-6" d="M299.83,188.05c-2.03,.05-3.65,.24-5.61-.59-.1-.04-.2-.1-.3-.15-.62-.96-1.66-1.62-2.84-1.96-.36-.34-.71-.69-1.04-1.05-.51-.57-1.26,.08-1.6,.81-1.08,.1-2.08,.45-2.76,1.06-6.75,6.02-16.78,6.73-23.02-.44,3.48-2.65-3.28-6.68-5.66-6.33-4.5,.67-9,1.35-13.5,2.02-1,.15-1.58,.54-1.87,1.05-3.35-.73-6.57-2.47-9.46-5.3-1.82-1.79-5.24-2.21-7.08-.34-3.37,3.42-7.22,6.06-11.71,7.09-3.18,.73-7.25-.72-9.99,1.71-3.91,3.48-5.93,12.32-6.74,17.46-.97,6.17-.23,12.44,1.15,18.49-.07-1.45,.06-2.86,.57-4.07-.14-2.17-.17-4.37-.06-6.63,.1-2.03,3.18-1.82,3.15,.18-.02,1.47,.03,2.91,.14,4.32,.48,.24,.88,.67,1.07,1.21,.49,1.41,1,2.82,1.52,4.22-.42-2.52-.73-4.98-.93-7.27-.21-2.33,2.95-3.3,3.68-1.21,0-.82,.01-1.63,.05-2.44,.03,.53,.07,1.06,.13,1.59-.04,.34-.09,.67-.13,1.01,0,.04,.03,.07,.03,.11,.1,.43,.19,.89,.28,1.33,.06,0,.13,0,.19,0,.92,4.96,2.83,9.82,4.96,14.23,4.78,9.92,11.56,18.75,19.99,24.92,1.05,.77,2.51-1.62,1.68-2.58-.03-.04-.06-.07-.1-.11,.23,.04,.63-.12,.53-.4-2.23-6.16-6.24-11.11-9.53-16.59-.89-2.79-1.63-5.63-2.21-8.5-.58-6.17-.86-12.37-.87-18.58,.03,.05,.07,.09,.1,.13,.01-.05,.02-.11,.03-.16,.13-.01,.26-.03,.38-.07,0,.55,.02,1.1,.04,1.65,1.49,7.79,3.37,15.37,6.17,22.22,.87,.08,1.74,.35,2.47,.7,.61,.29,1.13,.67,1.61,1.09-1.77-8.99-1.42-19.16,.44-28.45,.11,1.95,.29,3.89,.51,5.82-.02-2.19,.04-4.39,.22-6.59,.2-2.48,3.7-2.1,3.79,.27,.41,10.32,2.61,20.89,7.81,29.5-.2-2.05-.31-4.1-.37-6.15-1.25-6.43-1.18-13.13-.45-19.85,.39-3.55,4.89-3.55,5,.12,.12,3.92,.43,7.87,1,11.74-.26-5.36,.1-10.8,.85-16.01,.41-2.86,3.96-1.99,3.84,.74-.35,7.89-.83,16.12,.42,23.84,.49-2.42,.97-4.84,1.46-7.26,.03-.13,.05-.27,.08-.41-.88-4.87-1.46-9.85-.12-14.65,.23-.82,.83-1.17,1.46-1.18-.12-.8-.23-1.59-.33-2.37-.32-2.47,3.24-3.52,3.81-1.06,1.59,6.84,2.97,14.13,4.91,21.14,1.22-5.43,3.03-10.59,6.27-14.86-.82,8.73-.89,17.35,.12,26.19,.35,3.06,2.74,2.11,2.98-.48,.44-4.7,.56-9.93,1.42-14.81,1.38,.51,2.69,.39,3.18-.86,1.32-2.58,2.72-5.07,4.21-7.49-.86,5.05-1.12,10.18-.86,14.81,.08,1.5,2.09-.15,2.12-1.11,.26-11.25,4.87-18.41,11.38-26.23,.46-.55,.61-1.2,.56-1.86,.72-.07,1.44-.25,2.13-.6,1.69-.86,1.39-5.75-.72-5.69Z"/><path class="cls-6" d="M266.8,247.54c-5.92-9.48-9.35-19.09-8.94-30.74,.17-4.95,.78-9.8,1.94-14.59,.91-3.79,2.3-7.03,2.15-11-.05-1.53-2.62-6.77-4.5-4.67-14.79,16.49-4.9,48.24,9.01,61.21,.1,.1,.46-.03,.35-.21Z"/><path class="cls-6" d="M294.95,246c-8.19-5.05-17.33-12.1-18.05-23.59-.31-5.01,.54-10.49,2.23-15.13,1.23-3.39,3.94-6.63,3.81-10.3-.08-2.26-3.19-5.99-5.28-4.25-18.3,15.18-4.18,53.07,17.02,53.61,.1,0,.51-.19,.28-.33Z"/><path class="cls-6" d="M280.57,241.32c-8.52-8.94-14.91-27.2-8.83-39.78,.33-.69-.54-.7-.88-.47-5.02,3.44-4.82,14.74-4.07,20.27,1.31,9.74,5.75,18.5,12.19,25.1,2.57,2.63,3.28-3.34,1.58-5.12Z"/><path class="cls-6" d="M368.95,123.08c-.74-.02-1.39,.04-1.8,.15-5.82,1.57-9.1-4.93-13.75-7.4-4.08-2.17-8.93-2.28-13.22-.92-3.97,1.25-7.4,3.92-9.61,7.87-1.11,1.99-1.89,4.21-2.26,6.54l-.22,1.84c0,.09-.02,.16-.02,.24-.35-1.15-.8-2.76-1.12-3.86-.56-1.89-3.03-2.8-5.39-2.71-.11-.05-.23-.1-.34-.15,.02-2.2,0-4.39-.11-6.55-.05-.97-.21-1.9-.46-2.77,.21-.42,.42-.85,.63-1.28,1.89-3.78-5.65-7.62-7.87-4.38-.02,.03-.05,.05-.07,.08-2.72-.03-5.71,1.02-8.26,2.8-3.78-.29-7.71-1.62-9.89-2.21-.99-.27-1.7-.22-2.19,.03-.94-.96-2.09-1.45-3-.78-.88,.64-1.66,1.37-2.38,2.14-.04,.04-.07,.08-.11,.11-.31,.33-.61,.67-.89,1.02-.12,.14-.23,.29-.34,.44-2.21,2.89-3.65,6.39-4.6,10.23-.23,.91-.45,2.6,.47,3.18,.28,.18,.57,.36,.85,.54,.98,.62,1.79-.43,2.08-1.66,.82,1.06,1.81,1.58,2.73,.55,1.71-1.92,3.43-3.84,5.16-5.73,.04,.07,.07,.14,.11,.2-.45,2.45-1.03,4.84-1.36,7.34-.03,.21-.02,.44-.01,.66-.8,2.56-.71,4.84,.2,7.66,.5,1.53,2.56,4.61,4.43,3.73,6.69-3.12,13.6-3.45,20.21-.14-.57,1.92,1.56,5.25,4.12,5.62,4.42,.63,7.99,3.88,12.28,4.43,1.32,.17,2.4-.44,3.62-.4,.61-.25,1.13-.65,1.56-1.2,.38,1.96,.14,3.85-.7,5.67-.14,.38-.17,.76-.16,1.13-.03,.06-.05,.11-.08,.17-1.81,3.87,5.72,7.59,7.92,4.33,2.48-3.67,4.98-7.33,7.47-11,.02-.03,.04-.06,.06-.09,.62,8.26,3.8,16.14,5.32,24.17,.12,.65,.39,1.18,.72,1.59,.49,1.46,1.06,2.92,1.75,4.4,.88,1.89,3.78,3.85,4.21,.55,1.19-9.06,.53-17.86,2.62-26.85,1.97-8.49,5.22-16.62,9.06-24.24,1.97-3.9-4.18-6.94-7.34-5.13Z"/><path class="cls-6" d="M184.6,234.76c-2.13,4.53-4.12,9.17-6.58,13.49-2.79,4.88-6.25,7.49-10.2,11.01,.08,.07,.15,.15,.23,.22-.83,.91,.03,3.66,.57,3.83,.97,.3,4.12-3.95,4.54-4.47,5.58-6.92,8.72-15.43,11.6-24.06,.03-.08-.13-.07-.16-.02Z"/><path class="cls-6" d="M189.51,239.98c0-.12-.23-.07-.25,.03-.88,4.51-2.51,8.83-4.75,12.71-1.46,2.54-3.33,4.72-4.61,7.37-.54,1.12-.08,4.45,1.47,2.78,2.96-3.18,4.77-8.33,6.36-12.52,1.3-3.43,2.08-6.62,1.77-10.37Z"/><path class="cls-6" d="M193.34,250.39c-.64,2.75-1.84,5.19-2.57,7.88-.34,1.27,.92,1.69,1.58,.76,1.72-2.42,2.27-5.95,2.21-8.97-.01-.72-1.13-.09-1.23,.34Z"/><path class="cls-6" d="M204.08,255.31c-8.2-.11-16.47,.74-24.67,1.1-7.2,.32-14.32,.04-20.77,4.03-.03,.02-.05,.06-.02,.09,5.59,5.17,16.43,3.26,23.16,3.07,7.91-.22,16.49,.19,24.24-1.58,2.53-.58,.19-6.67-1.94-6.7Z"/><path class="cls-6" d="M195.85,255c4.58-6.31,2.6-12.98,.5-19.91-.03-.11,.17-.14,.22-.09,1.84,1.86,3.28,4.17,4.24,6.69,.62-.58,1.37-.52,1.85,1.01,2.12,6.81,8.3,13.97,14.76,14.77,1.4,.26,2.75,2.71,2.92,4.6-7.19-.14-14.4,.03-21.51,.48-.3-.76-.45-1.65-.41-2.45-.14,.1-.27,.2-.41,.29-2.29,1.46-3.26-3.88-2.17-5.39Zm4.75,2.84c.1-.02,.2-.03,.3-.05,.44-.07,.89-.14,1.33-.2-.27-.48-.51-.96-.72-1.46-.26,.6-.56,1.17-.91,1.71Z"/><g><path class="cls-5" d="M288.96,181.57c4.29-4.47,9.16-10.09,9.54-17.05,.33-5.9-2.58-11.52-7.3-14-.99-.52-4.32,1.14-2.91,1.89,4.34,2.29,6.82,7.61,6.51,12.92-.37,6.39-4.76,11.57-8.72,15.7-1.5,1.56,2.07,1.4,2.88,.55h0Z"/><path class="cls-5" d="M267.37,164.39c-10.81,4.6-10.56,20.57-.63,26.28,4.64,2.67,10.25,2.42,15,.25,4.09-1.87,8.91-6.23,6.85-11.75-.67-1.81-4.27-.64-3.63,1.09,2.05,5.48-4.2,8.47-7.96,9.13-4.07,.71-8.04-.66-10.91-3.95-5.01-5.74-4.36-15.58,2.89-18.67,2.32-.99,.27-3.18-1.6-2.39h0Z"/><path class="cls-5" d="M296.68,189.35c8.55,11.46,29.6,8.15,34.34-5.94,.42-1.23-3.18-.75-3.62,.55-3.96,11.74-20.48,13.04-27.35,3.83-.76-1.01-4.23,.41-3.38,1.56h0Z"/><path class="cls-5" d="M326.43,187.07c.88,6.42,7.58,4.27,11.15,2.5,.63-.31,1.87-1.46,.46-1.68-7.97-1.27-.7-6.4,1.23-8.44,2.28-2.42,4.14-6.04,4.43-9.59,.54-6.66-3.63-11.27-9.39-10.89-1.18,.08-3.89,2.19-1.48,2.04,7.66-.49,8.34,8.99,5.82,14.34-1.67,3.56-4.49,4.63-6.67,7.37-2.76,3.48,.56,6.65,3.78,7.16,.15-.56,.3-1.12,.46-1.68-3.68,2.04-5.73,1.3-6.16-2.22-.16-1.15-3.81-.23-3.63,1.09h0Z"/><path class="cls-5" d="M331.92,160.69c6.61-.97,11.45-8.87,8.08-15.83-.53-1.1-2.2-.47-2.93-.02-1.19,.72-.96,1.69-1.7,2.93-1.76,2.98-2.65,1.01-4.34-.37-3.45-2.82-8.35-2.98-12.42-2.96-1.32,0-3.86,2.26-1.43,2.24,4.25-.02,8.49,.29,11.77,3.63,1.23,1.25,1.86,2.18,3.65,2.15,1.38-.02,2.79-.76,3.86-1.69,.91-.79,1.7-1.85,2.28-2.96,.13-.26,1.33-2.29,.56-1.83-.98,0-1.95-.02-2.93-.02,1.94,4,1.27,11.79-3.94,12.55-1.72,.25-3.03,2.55-.51,2.18h0Z"/><path class="cls-5" d="M294.11,142.92c9.58-3.54,17.59-4.13,25.76,3.25,1.13,1.02,4.38-.82,2.83-2.22-9.09-8.21-18.54-7.5-29.19-3.56-2.15,.8-1.6,3.35,.6,2.53h0Z"/><path class="cls-5" d="M300.92,186.05h0c-4.64,4.07-9.83-2.03-9.6-7.37,.07-1.74-3.57-.95-3.63,.48-.44,10.18,9.91,13.12,16.16,7.64,.7-.61,.24-1.23-.36-1.52"/><path class="cls-5" d="M244.61,156.74c1.78,10.85,12.29,12.67,20.33,10.25,2.11-.63,1.82-1.98-.32-1.34-7.13,2.14-14.96-1.32-16.38-10.01-.15-.9-3.8,.04-3.63,1.09h0Z"/><path class="cls-5" d="M227.33,262.63c-20.33-9.56-30.91-30.39-28.66-54.93,.55-6.01,1.34-12.69,3.16-18.44,1.43-4.51,3.87-3.21,7.44-4.03,8.4-1.93,16.43-6.51,22.65-13.11-1.15,.23-2.31,.46-3.46,.69,7.78,13.33,22.67,10.8,33.24,3.73,1.52-1.02-2.1-.61-2.78-.15-8.99,6.02-20.71,5.83-26.83-4.68-.56-.96-2.92,.12-3.46,.69-5.45,5.78-13.36,11.1-21.03,11.62-2.08,.14-4.21-.43-6.14,.82-2.75,1.77-3.41,5.65-4.09,8.84-1.22,5.75-2.15,11.61-2.51,17.51-1.47,23.86,9.47,43.62,29.05,52.83,.99,.46,3.81-1.21,3.42-1.4h0Z"/><path class="cls-5" d="M233.87,223.7c-2.12-14.17,.64-28.65,7.69-40.62,.34-.57-.83-.57-1.09-.13-7.13,12.11-9.89,26.78-7.75,41.09,.08,.57,1.24,.25,1.15-.35h0Z"/><path class="cls-5" d="M260.79,236.5c-3.49-7.89-4.25-16.69-3.39-25.37,.39-3.96,1.09-7.88,2-11.73,1.03-4.36,2.21-8.89,5.27-12.03,.57-.59-.33-1.06-.77-.61-5.33,5.46-6.68,15.7-7.55,23.34-1.04,9.23-.33,18.57,3.39,26.99,.23,.53,1.32,.04,1.05-.58h0Z"/><path class="cls-5" d="M237.86,139.33c10.49-8.7,23.72-13.16,36.72-10.75,7.83,1.45,12.32,.45,18.24-5.99-1.09,.06-2.18,.12-3.27,.19,.92,4.46,1.82,9.04-1.68,12.61-.27,.27-.56,.81-.22,1.17,3.43,3.69,6.38,9.13,2.75,13.92-1.04,1.38,2.6,1.16,3.39,.12,4.14-5.47,1.2-8.08-1.03-13.4-1.12-2.67-.44-1.75,.45-4.44,1.26-3.79,.78-7.14-.03-11.08-.28-1.36-2.74-.4-3.27,.19-5.85,6.37-12.42,3.98-19.41,3.68-4.13-.18-8.25,.32-12.29,1.24-8.21,1.86-15.85,5.68-22.59,11.27-1.97,1.63,1.1,2.24,2.27,1.27h0Z"/><path class="cls-5" d="M240.71,213.34c1.28-11.76,3.18-24.05,10.95-32.76,.5-.56-.62-.68-.95-.31-7.88,8.83-9.87,21.26-11.17,33.2-.07,.6,1.1,.4,1.16-.12h0Z"/><path class="cls-5" d="M252.1,239.75c-5.86-9.21-5.88-21.88-4.12-32.6,1.87-11.4,6.44-22.01,13.14-30.79,.03-.04-.91-.04-1.13,.24-6.51,8.54-11,18.78-12.98,29.82-1.97,11.01-2.1,24.18,3.94,33.68,.18,.29,1.21-.25,1.15-.35h0Z"/><path class="cls-5" d="M278.27,245.81c-15.04-13.43-15.69-37.54-5.15-54.53,.34-.54-.83-.52-1.09-.1-10.73,17.29-9.92,41.71,5.35,55.33,.36,.32,1.39-.26,.9-.7h0Z"/><path class="cls-5" d="M278.72,228.03c-3.01-15.76,3.09-31.67,15.41-39.92,.67-.45-.3-.84-.75-.54-12.58,8.42-18.89,24.7-15.81,40.81,.11,.56,1.26,.23,1.15-.35h0Z"/><path class="cls-5" d="M272.41,205.52c1.47-6.34,4.6-11.84,9.17-15.94,.46-.41-.67-.26-.89-.07-4.67,4.19-7.91,9.72-9.42,16.22-.07,.31,1.06,.13,1.14-.22h0Z"/><path class="cls-5" d="M282.24,237.64c5.66,7.9,13.87,12.16,22.27,15.23,.5,.18,1.35-.63,.66-.89-8.25-3.01-16.33-7.16-21.88-14.92-.33-.47-1.43,.05-1.05,.57h0Z"/><path class="cls-5" d="M239.4,224.36c2.55,13.47,7.14,27.67,18.76,34.27,.36,.2,1.41-.37,.91-.65-11.51-6.54-16-20.64-18.52-33.96-.09-.48-1.24-.15-1.15,.35h0Z"/><path class="cls-5" d="M234.25,234.34c2.4,7.22,6.21,13.52,11.31,18.68,.24,.24,1.29-.24,1.08-.46-5.06-5.12-8.86-11.39-11.24-18.57-.11-.34-1.25,.05-1.15,.35h0Z"/><path class="cls-5" d="M205.27,211.37c.56-9.72,1.39-20.55,8.59-27.18,.6-.55-.33-.89-.74-.51-7.44,6.84-8.43,17.71-9.01,27.81-.04,.62,1.13,.41,1.16-.12h0Z"/><path class="cls-5" d="M213.02,207.58c.84-13.68,8.32-24.7,17.22-33.43,.47-.46-.66-.36-.9-.13-9,8.81-16.61,19.91-17.46,33.75-.03,.44,1.12,.17,1.14-.19h0Z"/><path class="cls-5" d="M225.35,141.2c4.81-1.83,9.85-1.36,14.53,.68,.98,.43,3.7-1.24,3.42-1.37-6.31-2.76-12.82-2.58-19.19-.16-2.45,.93-.13,1.36,1.23,.84h0Z"/><path class="cls-5" d="M411.26,113.52c11.01-10.6,3.51-33.86-10.02-36.92-.93-.21-4.11,1.46-2.95,1.72,12.08,2.73,20.47,24.93,10.14,34.88-1.46,1.41,2.11,1.01,2.82,.32h0Z"/><path class="cls-5" d="M410.59,114.04c3.74-6.55,.69-14.65-5.2-18.14-2.3-1.36-4.83-1.78-7.37-1.27-4.65,.93-13.04,7.72-14.74-1.27-.32-1.67-3.95-.63-3.63,1.09,1.08,5.7,5.39,7.43,10.12,6.29,4.36-1.05,7.96-4.31,12.78-2.66,5.51,1.89,7.34,10.87,4.61,15.65-1.01,1.76,2.67,1.63,3.43,.3h0Z"/><path class="cls-5" d="M393.1,98.03c6.17,9.73-5.92,18.92-9.17,27.1-2.41,6.08-2.22,12.94,2.45,17.5,.98,.96,4.38-.62,3.36-1.61-15.04-14.72,16.5-29.19,6.72-44.6-.73-1.14-4.24,.24-3.36,1.61h0Z"/><path class="cls-5" d="M385.99,141.53c-.12,.08-.23,.16-.35,.24,.75-.16,1.49-.33,2.24-.49-3-1.22-6.02-5.85-7.52-8.83-1.84-3.64-2.58-7.52-2.16-11.69,.17-1.74-3.49-1.02-3.64,.46-.62,6.24,1.23,12.03,4.89,16.74,2.06,2.65,5.42,7.26,8.83,4.93,2.09-1.43-1.03-2.22-2.29-1.36h0Z"/><path class="cls-5" d="M375.69,120.22c-8.8,5.08-16.96,.02-22.37-7.75-4.32-6.21-4.96-13.46-2.08-20.68,.4-1-3.13-.6-3.61,.6-4.33,10.84,0,21.96,8.52,28.41,6.67,5.05,14.82,4.33,21.72,.35,2.15-1.24-1.13-1.53-2.18-.93h0Z"/><path class="cls-5" d="M353.23,113.7c-12.49-5.58-25.02,5.91-24.71,20.38,.02,.79,3.65,.14,3.63-1.09-.23-11,7.27-22.48,18.12-17.63,.84,.38,4.12-1.13,2.96-1.65h0Z"/><path class="cls-5" d="M321.57,106.73c-3.79,10.22-2.57,22.25,6.89,27.68,1.56,.9,4.14-1.66,2.07-2.85-8.23-4.73-8.65-15.72-5.48-24.29,.82-2.21-2.83-2.31-3.49-.54h0Z"/><path class="cls-5" d="M300.83,91.56c-4.5,15.47,33.09,24.8,34.99,4.05,.05-.6-3.51-.18-3.63,1.09-1.6,17.52-31.44,6.78-27.78-5.83,.25-.85-3.27-.39-3.58,.69h0Z"/><path class="cls-5" d="M408.32,81.1c2.77-7.9-1.22-20.33-8.95-22.96-1.67-.57-4.27,2.14-2.06,2.89,6.39,2.18,9.77,13.09,7.52,19.51-.79,2.25,2.86,2.38,3.49,.57h0Z"/><path class="cls-5" d="M281.62,127.18c.85-5.1,2.21-11.52,6.41-14.52,4.72-3.37,9.16,.05,13.58,1.95,7.72,3.31,13.06-5.61,20.53-5.06,1.6,.12,3.78-2.48,1.33-2.67-5.62-.42-8.91,3.53-14,4.95-5.76,1.6-10.33-3.26-16.06-3.27-9.64,0-13.88,9.64-15.45,19.02-.3,1.82,3.38,1.22,3.65-.4h0Z"/><path class="cls-5" d="M368.15,88.46c1.67,6.93,8.5,9.13,13.89,6.11,2.24-1.25,.2-2.88-1.49-1.93-3.92,2.19-7.73-.95-8.77-5.28-.38-1.58-4.01-.49-3.63,1.09h0Z"/><path class="cls-5" d="M397.87,61.6c4.62-6.77,4.99-16.36-.57-22.72-5.87-6.73-15.08-7-22.8-5.48-4.34,.85-7.23-1.76-11.47-2.88-3.4-.9-6.94-1.25-10.42-.84-6.73,.8-12.79,4.55-16.16,11.23,.98-.41,1.97-.83,2.95-1.24-9.33-1.25-18.95-1.1-27.71,3.16-3.78,1.84-7.24,4.4-10.28,7.53-2.13,2.19-4.02,4.65-5.73,7.26-2.05,3.13-3.71,4.08-6.89,5.69-23.41,11.89-40.53,40.91-49.96,66.73-.32,.87,3.18,.47,3.59-.66,8.67-23.74,23.25-48.48,43.12-62.1,3.35-2.3,8.19-3.22,11.1-5.97,1.67-1.59,2.89-4.8,4.37-6.77,1.72-2.28,3.6-4.43,5.7-6.27,8.8-7.71,19.72-8.22,30.38-6.79,.9,.12,2.47-.28,2.95-1.24,4.95-9.8,16.05-10.4,24.56-6.44,1.53,.71,2.96,2.08,4.6,2.33,2.49,.38,5.87-1.36,8.3-1.57,6.77-.6,14.69,1.61,18.38,8.63,3.1,5.9,2.3,13.28-1.32,18.6-.79,1.16,2.73,.66,3.31-.19h0Z"/><path class="cls-5" d="M336.97,39.48c-2.74,7.95-7.83,14.26-14.65,18.01-2.17,1.2,1.1,1.65,2.21,1.04,7.41-4.08,13.08-10.97,16.06-19.62,.41-1.18-3.18-.71-3.61,.56h0Z"/><path class="cls-5" d="M334.92,59.11c-12.57-4.99-22.68-.81-32.76,8.2-1.65,1.48,1.93,1.75,2.95,.84,8.59-7.68,16.91-10.92,27.63-6.66,1.27,.5,4.25-1.56,2.18-2.38h0Z"/><path class="cls-5" d="M358.44,165.84c-1.04-14.47,1.65-28.86,7.75-41.65,.31-.64-.86-.66-1.1-.15-6.17,12.96-8.85,27.51-7.79,42.15,.04,.59,1.19,.28,1.15-.35h0Z"/><path class="cls-5" d="M349.47,145.92c.6-9.07,3.66-17.51,8.91-24.43,.46-.61-.64-.72-.95-.32-5.36,7.05-8.52,15.62-9.13,24.87-.04,.62,1.12,.4,1.16-.12h0Z"/><path class="cls-5" d="M351.61,160.7c.01,11.88,2.05,23.52,6.07,34.51,.19,.52,1.33,.14,1.15-.35-4-10.92-6.05-22.48-6.07-34.29,0-.62-1.16-.38-1.16,.13h0Z"/><path class="cls-5" d="M364.18,204.74c5.39,21.38,17.83,39.93,34.63,51.64,.44,.31,1.44-.37,.88-.76-16.68-11.62-29.01-30-34.37-51.23-.15-.61-1.3-.26-1.15,.35h0Z"/><path class="cls-5" d="M333.43,203.61c4.1,22.88,13.11,46.1,32.12,57.83,.29,.18,1.23-.35,1.08-.44-18.98-11.71-27.96-34.89-32.05-57.73-.05-.27-1.21,.03-1.15,.35h0Z"/><path class="cls-5" d="M340.45,193.92c7.29,25.69,15.79,53.93,37.62,68.47,.41,.27,1.43-.36,.89-.72-21.7-14.45-30.12-42.55-37.36-68.1-.16-.56-1.31-.2-1.15,.35h0Z"/><path class="cls-5" d="M343.32,169.19c.09,1.5,.18,2.99,.27,4.49,.02,.25,1.17,.02,1.15-.35-.09-1.5-.18-2.99-.27-4.49-.02-.25-1.17-.02-1.15,.35h0Z"/><path class="cls-5" d="M349.47,197.99c9.25,25.66,21.76,51.72,44.4,65.08,.32,.19,1.38-.34,.92-.61-22.53-13.3-34.96-39.28-44.17-64.81-.16-.44-1.29-.05-1.15,.35h0Z"/><path class="cls-5" d="M314.6,138.22c-3.15-9.61-1.67-20.38,3.98-28.43,.25-.36-.86-.2-1.05,.06-5.71,8.14-7.27,18.98-4.08,28.71,.11,.34,1.25-.05,1.15-.35h0Z"/><path class="cls-5" d="M321.68,136.64c-1.27-4.28-1.08-8.64,.54-12.76,.12-.31-.99-.18-1.14,.19-1.64,4.17-1.83,8.59-.55,12.92,.11,.38,1.25,0,1.15-.35h0Z"/><path class="cls-5" d="M303.25,134.43c-2.08-7.23-1.1-14.9,2.73-21.16,.26-.43-.87-.29-1.06,.02-3.9,6.36-4.93,14.13-2.82,21.48,.11,.39,1.26,.02,1.15-.35h0Z"/><path class="cls-5" d="M314,200.9c-6.1,24.61,4.3,50.7,24.69,61.93,.41,.22,1.43-.41,.9-.7-20.22-11.14-30.47-36.95-24.42-61.34,.14-.56-1.03-.4-1.16,.12h0Z"/><path class="cls-5" d="M328.42,222.39c-4.07-11.36-4.06-23.89,.03-35.24,.11-.31-1.01-.18-1.14,.2-4.1,11.38-4.12,24-.03,35.39,.13,.37,1.26-.03,1.15-.35h0Z"/><path class="cls-5" d="M305.62,240.33c-4.86-14.77-8.61-32.97,1.53-46.16,.23-.3-.86-.15-1.04,.09-10.22,13.29-6.55,31.5-1.64,46.41,.1,.31,1.23-.09,1.15-.35h0Z"/><path class="cls-5" d="M293.4,218.15c-.92-8.73,.88-17.3,5.18-24.64,.28-.48-.86-.36-1.07-.02-4.36,7.44-6.19,16.16-5.26,25,.04,.41,1.2,.13,1.15-.35h0Z"/><path class="cls-5" d="M293.81,231.35c1.54,6.69,4.6,12.57,9.02,17.37,.33,.36,1.42-.15,1.06-.54-4.38-4.75-7.4-10.56-8.93-17.18-.12-.52-1.27-.18-1.15,.35h0Z"/><path class="cls-5" d="M306.58,219.57c1.23,11.4,4.49,22.26,9.63,32.17,.17,.32,1.24-.16,1.15-.35-5.15-9.92-8.4-20.78-9.63-32.17-.03-.25-1.19,0-1.15,.35h0Z"/><path class="cls-5" d="M329.8,229.68c5.4,15.67,16.81,27.98,30.97,33.39,.49,.19,1.35-.61,.66-.87-13.92-5.33-25.16-17.45-30.48-32.87-.2-.58-1.34-.22-1.15,.35h0Z"/><path class="cls-5" d="M346.58,189.14c-1.18-3.78-1.69-7.64-1.52-11.64,.03-.65-1.14-.45-1.16,.11-.17,4.08,.33,8.02,1.53,11.88,.18,.56,1.32,.2,1.15-.35h0Z"/><path class="cls-5" d="M344.5,136.71c1.12-7.22,4.19-13.65,8.96-18.65,.48-.5-.65-.47-.92-.19-4.87,5.11-8.04,11.63-9.19,19.02-.07,.47,1.08,.26,1.15-.17h0Z"/><path class="cls-5" d="M336.8,132.92c.39-4.12,1.62-7.93,3.86-11.23,1.75-2.58,4.01-4.63,5.64-7.33,.09-.15-.94-.1-1.13,.22-1.91,3.14-4.66,5.45-6.49,8.65-1.75,3.05-2.68,6.44-3.02,10.03-.02,.18,1.11,.05,1.15-.35h0Z"/><path class="cls-5" d="M333.35,140.61c-.67,3.45-.65,6.88,.04,10.32,.11,.54,1.26,.21,1.15-.35-.68-3.37-.68-6.73-.03-10.1,.11-.58-1.06-.4-1.16,.12h0Z"/><path class="cls-5" d="M326.23,137.25c-.89,3.46-.55,6.91,1.01,10.06,.26,.52,1.35,.03,1.05-.58-1.43-2.88-1.77-6.14-.95-9.31,.19-.73-.95-.74-1.1-.17h0Z"/><path class="cls-5" d="M317.34,125.92c0-4.91,1.87-9.39,5.23-12.52,.5-.47-.64-.46-.92-.2-3.52,3.28-5.47,7.92-5.47,13.07,0,.38,1.15,.15,1.15-.35h0Z"/><path class="cls-5" d="M306.75,126.18c-1.06,3.84-.77,7.79,.85,11.37,.2,.45,1.32,.04,1.15-.35-1.6-3.54-1.9-7.38-.85-11.18,.13-.46-1.03-.29-1.15,.16h0Z"/><path class="cls-5" d="M293.57,117.46c.35-1.88,.98-3.61,1.87-5.24,.32-.59-.84-.58-1.09-.12-.93,1.69-1.58,3.52-1.94,5.47-.11,.6,1.06,.43,1.16-.11h0Z"/><path class="cls-5" d="M294.44,130.23c-.32,3.25,.34,6.35,1.93,9.09,.18,.31,1.24-.2,1.15-.35-1.6-2.74-2.25-5.83-1.93-9.09,.01-.15-1.11-.04-1.15,.35h0Z"/><path class="cls-5" d="M250.69,129.62c-27.37-2.92-51.35,13.96-66.41,38.83-5.47,9.04-9.16,19.19-13.47,28.94-4.88,11.04-10.55,21.67-16.98,31.66-5.97,9.28-12.77,18.21-21.43,24.43-5.14,3.69-10.78,6.27-16.81,7.34-1.96,.35-3.27,.14-4.33,2.12-.42,.79,.36,1.12,.96,1.12,84.18,0,199.67,86.61,270.29,38.6,18.81-12.79,27.74-38.6,50.49-38.6,.82,0,3.9-1.71,1.84-2.17-24.78-5.5-43.28-24.55-55.53-48.89-13.02-25.86-18.55-64.83-2.4-90.55,.91-1.45-2.71-1.07-3.36-.03-16.78,26.73-10.81,67.11,3.14,93.62,12.74,24.2,31.06,42.47,55.92,47.98,.61-.72,1.23-1.45,1.84-2.17-122.45,78.4-177.24,54.47-252.54,0-18.43-13.33-45.49,0-68.24,0l.96,1.12c.23-.42,7.53-1.79,8.53-2.17,2.79-1.05,5.49-2.39,8.07-3.96,6.58-4,12.31-9.52,17.34-15.7,12.31-15.11,21.33-33.46,29.09-51.87,13.35-31.67,36.52-61.18,70.79-57.52,1.08,.12,4.23-1.92,2.24-2.13h0Z"/><path class="cls-5" d="M379.34,79.42c-3.98,3.54-7.09,6.12-12.13,7.28-5.78,1.33-9.26-.66-13.85-4.52-1.02-.86-4.35,.76-3.37,1.59,4.78,4.02,10.26,7.23,16.4,6.2,6.04-1.01,11.2-5.76,15.85-9.89,1.61-1.43-1.99-1.47-2.91-.66h0Z"/><path class="cls-5" d="M189.57,194.37c2.35-5.22,6.86-8.94,12.21-8.65,.9,.05,4.17-1.77,2.3-1.87-7.41-.41-14.7,3.58-18.11,11.16-.37,.82,3.09,.49,3.6-.64h0Z"/><path class="cls-5" d="M297.77,122.94c-.3-3.41,.35-6.63,1.94-9.55,.28-.52-.87-.4-1.07-.03-1.65,3.03-2.33,6.4-2.02,9.93,.04,.43,1.19,.15,1.15-.35h0Z"/><path class="cls-5" d="M286.74,120.19c.67-3.57,1.85-7.06,4.46-9.39,.5-.44-.65-.4-.91-.16-2.72,2.43-4,6-4.69,9.73-.08,.43,1.07,.22,1.14-.18h0Z"/><path class="cls-5" d="M285.11,122.6c-.31,1.28-.41,2.54-.29,3.86,.06,.63,1.21,.31,1.15-.35-.1-1.12-.02-2.25,.25-3.34,.18-.74-.96-.76-1.11-.18h0Z"/><path class="cls-5" d="M289.14,116.67c-.57,2.24-.85,4.51-.87,6.83,0,.26,1.15,.07,1.15-.35,.01-2.28,.3-4.5,.85-6.7,.08-.32-1.05-.15-1.14,.21h0Z"/><path class="cls-5" d="M291.02,114.3c.68-1.36,1.59-2.53,2.71-3.45,.63-.51-.34-.73-.72-.42-1.26,1.03-2.3,2.3-3.06,3.82-.28,.55,.88,.44,1.08,.05h0Z"/><path class="cls-5" d="M307.58,122.05c.73-3.38,1.52-6.85,3.87-9.3,.47-.49-.66-.4-.91-.15-2.46,2.57-3.34,6.07-4.11,9.64-.09,.41,1.06,.21,1.14-.19h0Z"/><path class="cls-5" d="M312.05,50.35c6.8-4.41,14.59-6.03,22.35-4.64,.41,.07,1.36-.64,.69-.76-8.28-1.48-16.51,.24-23.77,4.95-.67,.43,.32,.73,.73,.46h0Z"/><path class="cls-5" d="M316.56,51.35c4.85-1.6,9.74-2.2,14.78-1.83,.41,.03,1.23-.63,.46-.69-5.24-.38-10.35,.26-15.38,1.92-.68,.22-.55,.82,.14,.6h0Z"/><path class="cls-5" d="M317.77,54.8c3.22-.75,6.43-.8,9.67-.21,.33,.06,1.34-.53,.72-.64-3.53-.64-7.02-.52-10.52,.29-.7,.16-.55,.73,.13,.57h0Z"/><path class="cls-5" d="M225.16,138.1c3.78-1.09,7.58-1.29,11.44-.63,.5,.09,1.19-.69,.43-.82-4.06-.69-8.07-.45-12.04,.7-.7,.2-.52,.95,.18,.75h0Z"/><path class="cls-5" d="M228.32,135.18c3.46-1.05,6.94-1.24,10.48-.66,.27,.04,1.32-.46,.74-.56-3.82-.63-7.6-.35-11.32,.77-.67,.2-.57,.65,.11,.44h0Z"/><path class="cls-5" d="M212.98,178.51c2.61,.13,4.98-1.49,7.22-2.85,2.82-1.7,5.46-3.71,7.96-5.94,.61-.54-.31-1.01-.76-.6-2.04,1.82-4.15,3.5-6.41,4.96-2.15,1.39-5.07,3.61-7.62,3.48-.56-.03-1.17,.91-.4,.95h0Z"/><path class="cls-5" d="M219.15,173.15c3.29-2.34,6.57-4.67,9.86-7.01,.66-.47-.3-.88-.75-.56-3.29,2.34-6.57,4.67-9.86,7.01-.66,.47,.3,.88,.75,.56h0Z"/><path class="cls-5" d="M247.29,167.8c4.83,2.77,10.2,3.15,15.3,1.12,.69-.27,.48-1.21-.22-.93-4.86,1.94-9.85,1.54-14.43-1.09-.5-.29-1.31,.53-.66,.9h0Z"/><path class="cls-5" d="M247.89,171.3c3.53,2.93,9.65,1.71,13.49,.27,.78-.29,.04-.43-.39-.26-3.39,1.26-8.88,2.16-12.02-.44-.25-.21-1.23,.31-1.08,.43h0Z"/><path class="cls-5" d="M249.72,176.21c3.95,1.17,7.83,.07,11.46-1.83,.69-.36-.37-.41-.68-.25-3.12,1.63-6.44,2.54-9.84,1.53-.29-.09-1.31,.43-.93,.55h0Z"/><path class="cls-5" d="M329.7,119.25c1.63-3.22,3.86-5.97,6.68-7.92,1.53-1.06,3.17-1.92,4.9-2.47,1.36-.43,4.46-1.53,5.77-.69,.07-.21,.14-.42,.22-.63-.03,.02-.06,.04-.09,.06,.27,.04,.54,.09,.81,.13,0-.03-.02-.05-.03-.08-.19-.49-1.32-.1-1.15,.35,0,.03,.02,.05,.03,.08,.12,.31,.59,.26,.81,.13,.03-.02,.06-.04,.09-.06,.18-.11,.54-.43,.22-.63-2.49-1.6-7.94,.83-10.26,2.09-3.84,2.09-6.96,5.41-9.07,9.58-.29,.56,.87,.48,1.08,.07h0Z"/><path class="cls-5" d="M334.31,108.36c3.49-2.89,7.45-4.34,11.79-4.25,.44,0,1.22-.73,.44-.74-4.71-.1-9.15,1.45-12.95,4.6-.62,.52,.35,.7,.72,.39h0Z"/><path class="cls-5" d="M338.27,101.93c2.65-1.56,5.47-2.24,8.45-2.11,.39,.02,1.24-.61,.47-.64-3.38-.14-6.61,.7-9.61,2.46-.68,.4,.36,.49,.69,.29h0Z"/><path class="cls-5" d="M168.99,220c-8.9,20.24-24.62,36.11-43.55,43.71-.77,.31-.04,.43,.39,.25,19.21-7.72,35.25-23.63,44.3-44.21,.07-.15-.99-.08-1.13,.24h0Z"/><path class="cls-5" d="M169.35,231.29c-6.64,13.9-17.31,24.83-30.27,30.91-.74,.35-.07,.8,.46,.55,13.19-6.18,24.12-17.27,30.89-31.43,.26-.55-.89-.42-1.07-.04h0Z"/><path class="cls-5" d="M169.21,244.43c-5.32,7.26-11.9,13.03-19.49,17-.73,.38-.05,.68,.43,.43,7.82-4.1,14.62-9.97,20.11-17.46,.28-.39-.85-.26-1.06,.03h0Z"/><path class="cls-5" d="M400.77,85.94c3.79,1.78,7.3,3.76,9.34,7.98,1.75,3.64,3.23,8.91,2.51,13.01-.12,.67,1.06,.53,1.17-.08,.77-4.35-.77-9.68-2.62-13.51-2.13-4.39-5.77-6.45-9.73-8.31-.52-.24-1.33,.59-.65,.91h0Z"/><path class="cls-5" d="M399.74,90.53c8.46,1.97,13.9,10.51,12.97,20.15-.05,.54,1.11,.31,1.15-.15,.96-9.98-4.7-18.68-13.43-20.72-.39-.09-1.35,.57-.7,.73h0Z"/><path class="cls-5" d="M381.16,114.15c-2.35,3.03-4.48,7.17-3.78,11.34,.8,4.76,3.47,9.51,6.11,13.21,.33,.46,1.42-.05,1.05-.57-2.32-3.26-4.21-6.85-5.43-10.82-1.47-4.81,.14-9.07,3.01-12.78,.48-.61-.62-.83-.96-.39h0Z"/><path class="cls-5" d="M382.99,118.21c-4.67,6.15-4.42,14.82,.73,20.52,.37,.41,1.46-.12,1.05-.57-4.9-5.42-5.31-13.64-.82-19.56,.47-.62-.62-.84-.96-.39h0Z"/><path class="cls-5" d="M383.46,122.21c-2.99,6.43-1.98,13.75,2.62,18.83,.25,.27,1.32-.2,1.07-.47-4.54-5.02-5.5-12.21-2.55-18.55,.13-.28-.97-.17-1.14,.19h0Z"/><path class="cls-5" d="M276.18,173.03c1.86,6.82,10,7.71,14.68,4.1,.47-.37-.67-.22-.88-.05-1.73,.52-3.46,1.05-5.19,1.57-.74-.02-1.46-.14-2.16-.37-.94-.31-1.9-.75-2.71-1.39-1.3-1.04-2.13-2.51-2.59-4.2-.08-.31-1.23,.05-1.15,.35h0Z"/><path class="cls-5" d="M279.83,138.51c4,.67,8.01-1,10.57-4.53,.29-.39-.85-.27-1.06,.02-2.17,3-5.37,4.46-8.79,3.88-.32-.05-1.34,.53-.72,.64h0Z"/></g></g></g></svg>